<svg width="45" height="40" viewBox="0 0 45 40" fill="none" xmlns="http://www.w3.org/2000/svg">
<g clip-path="url(#clip0)">
<path d="M4.64708 30.9414V24.0475H15.8632V26.8538H26.9621V24.0475H38.1783V26.0868H41.2462V24.0475H42.8253V14.1217C42.823 12.5118 42.1824 10.9686 41.044 9.83024C39.9057 8.69189 38.3624 8.05131 36.7526 8.04893H30.003V6.7676C29.9982 4.97262 29.2825 3.25266 28.0124 1.98427C26.7423 0.715871 25.0214 0.0023806 23.2264 0L19.617 0C17.8229 0.00238742 16.1029 0.716167 14.8342 1.98482C13.5656 3.25347 12.8518 4.97345 12.8494 6.7676V8.02186H5.82013C4.27654 8.02186 2.79616 8.63505 1.70468 9.72653C0.613191 10.818 0 12.2984 0 13.842L0 24.0475H1.57911V30.9414C1.58388 32.5489 2.2258 34.0889 3.36415 35.2239C4.5025 36.3589 6.04441 36.9962 7.65189 36.9962H29.0375V33.9282H7.65189C6.85809 33.9282 6.09652 33.6141 5.53353 33.0545C4.97053 32.4949 4.65185 31.7352 4.64708 30.9414ZM23.8941 21.0156V23.8219H18.9493V19.2109H23.9031L23.8941 21.0156ZM15.8993 6.7676C15.9017 5.78713 16.2923 4.8475 16.9856 4.1542C17.6789 3.4609 18.6185 3.07036 19.599 3.06798H23.2083C24.1888 3.07036 25.1284 3.4609 25.8217 4.1542C26.515 4.8475 26.9056 5.78713 26.908 6.7676V8.02186H15.8993V6.7676ZM3.06798 20.9795V13.842C3.07036 13.1128 3.36108 12.4142 3.87669 11.8985C4.39231 11.3829 5.09095 11.0922 5.82013 11.0898H36.7526C37.5495 11.0898 38.3138 11.4064 38.8773 11.9699C39.4408 12.5334 39.7574 13.2977 39.7574 14.0946V20.9795H26.9621V16.143H15.8632V20.9795H3.06798Z" fill="white"/>
<path d="M42.7983 28.1261V28.1352L41.2463 29.7233L39.7304 31.2934L36.4368 34.6681L36.0307 35.0922L35.6247 34.6681L34.9118 33.9372L33.5583 32.5476L32.1236 33.9372L31.3746 34.6681L31.3656 34.6862L33.6215 37.0142L34.3253 37.7361L36.0307 39.4957L37.8444 37.6278L42.7171 32.6198L45.0001 30.2647L42.7983 28.1261Z" fill="white"/>
</g>
<defs>
<clipPath id="clip0">
<rect width="45" height="39.4957" fill="white"/>
</clipPath>
</defs>
</svg>
