<svg width="38" height="37" viewBox="0 0 38 37" fill="none" xmlns="http://www.w3.org/2000/svg">
<g clip-path="url(#clip0)">
<path d="M38.0259 13.9054C38.0253 13.6713 37.9685 13.4407 37.8602 13.2332C37.7519 13.0256 37.5953 12.8471 37.4036 12.7128L33.1776 9.71389V2.03093H22.3229L19.8771 0.26791C19.6245 0.0889459 19.3225 -0.00717163 19.0129 -0.00717163C18.7033 -0.00717163 18.4013 0.0889459 18.1487 0.26791L15.6684 1.99636H4.84825V9.67933L0.622182 12.7128C0.430473 12.8471 0.273874 13.0256 0.165583 13.2332C0.0572916 13.4407 0.000481077 13.6713 -6.06566e-05 13.9054C-0.00486259 13.9456 -0.00486259 13.9862 -6.0657e-05 14.0264C-0.00381634 14.0753 -0.00381634 14.1244 -6.06566e-05 14.1733V30.9652C0.00222528 32.5071 0.61574 33.9851 1.706 35.0754C2.79626 36.1656 4.27432 36.7792 5.81618 36.7814H32.1837C32.9494 36.7837 33.708 36.635 34.4161 36.3438C35.1242 36.0527 35.768 35.6247 36.3106 35.0845C36.8532 34.5443 37.284 33.9025 37.5783 33.1956C37.8727 32.4888 38.0247 31.7309 38.0259 30.9652V14.1733C38.0259 14.1733 38.0259 14.0782 38.0259 14.0264C38.0259 13.9745 38.0259 13.9486 38.0259 13.9054ZM5.23715 33.7912L13.2831 24.0946L18.1487 27.5515C18.4001 27.7331 18.7028 27.83 19.0129 27.8281C19.3228 27.8282 19.6249 27.7315 19.8771 27.5515L24.7427 24.0946L32.7541 33.7912C32.566 33.826 32.375 33.8434 32.1837 33.8431H5.81618C5.622 33.8434 5.42819 33.826 5.23715 33.7912ZM4.00995 13.914L4.87417 13.3264V14.5103L4.40749 14.1819L4.00995 13.914ZM33.1516 13.3264L34.0159 13.914L33.6356 14.1819L33.1776 14.5103V13.3177L33.1516 13.3264ZM2.93831 30.9652V16.7487L10.8805 22.3834L3.10251 31.7949C3.00273 31.5292 2.94726 31.2489 2.93831 30.9652ZM35.0616 30.9652C35.0598 31.2586 35.0132 31.5501 34.9233 31.8294L27.1453 22.418L35.0875 16.7833L35.0616 30.9652ZM7.77797 7.49284V4.9693H30.2478V16.74L19.0129 24.5613L7.77797 16.7833V7.49284Z" fill="white"/>
<path d="M26.3587 8.49534V8.29657H26.0735H11.9175H11.6323V8.49534V11.2349H26.3587V8.49534Z" fill="white"/>
<path d="M26.3587 15.6425V14.1733V13.6288H11.6323V14.1733V15.6425V16.5672H26.3587V15.6425Z" fill="white"/>
</g>
<defs>
<clipPath id="clip0">
<rect width="38" height="36.7814" fill="white"/>
</clipPath>
</defs>
</svg>
